[Header]
FileType HTR
DataType HTRS
FileVersion 1
NumSegments 22
NumFrames 4
DataFrameRate 24
EulerRotationOrder ZYX
CalibrationUnits mm
RotationUnits Degrees
GlobalAxisofGravity Y
BoneLengthAxis Y
ScaleFactor 1.0
[SegmentNames&Hierarchy]
reference	GLOBAL
Hips	reference
Spine	Hips
Spine1	Spine
Neck	Spine1
Head	Neck
LeftShoulder	Spine1
LeftArm	LeftShoulder
LeftForeArm	LeftArm
LeftHand	LeftForeArm
RightShoulder	Spine1
RightArm	RightShoulder
RightForeArm	RightArm
RightHand	RightForeArm
LeftUpLeg	Hips
LeftLeg	LeftUpLeg
LeftFoot	LeftLeg
LeftToeBase	LeftFoot
RightUpLeg	Hips
RightLeg	RightUpLeg
RightFoot	RightLeg
RightToeBase	RightFoot
[BasePosition]
reference	0	0	0	0	0	0	1
Hips	0	0	0	0	0	0	1
Spine	0	0	0	-0	-90	0	1
Spine1	0	0	0	0	0	0	1
Neck	0	0	0	82.64767223	-82.64767223	-90	1
Head	0	0	0	-0	-90	0	1
LeftShoulder	0	0	0	0	0	0	1
LeftArm	0	0	0	0	0	0	1
LeftForeArm	0	0	0	0	0	0	1
LeftHand	0	0	0	0	0	0	1
RightShoulder	0	0	0	0	-0	180	1
RightArm	0	0	0	0	-0	180	1
RightForeArm	0	0	0	0	-0	180	1
RightHand	0	0	0	0	-0	180	1
LeftUpLeg	0	0	0	-0	90	0	1
LeftLeg	0	0	0	-0	90	0	1
LeftFoot	0	0	0	-23.42853957	23.42853957	-90	1
LeftToeBase	0	0	0	0	-0	-90	1
RightUpLeg	0	0	0	-0	90	0	1
RightLeg	0	0	0	-0	90	0	1
RightFoot	0	0	0	-23.42853957	23.42853957	-90	1
RightToeBase	0	0	0	0	-0	-90	1
[reference]
30	0	0	0	0	-0	0	1.0
31	0	0	0	0	-0	0	1.0
32	0	0	0	0	-0	0	1.0
33	0	0	0	0	-0	0	1.0
[Hips]
30	5.112739563	0.1061000004	8.00755024	0.1053887606	1.051020503	-132.7083893	1.0
31	5.112739563	0.1061000004	8.00755024	0.3641192317	1.711083174	-132.8204956	1.0
32	5.112739563	0.1061000004	8.00755024	-0.9810076952	2.479359865	-132.6846771	1.0
33	5.112739563	0.1061000004	8.00755024	-0.4951664209	2.760013103	-132.4713287	1.0
[Spine]
30	0	0	0.7457100153	89.99693298	95.14526367	93.63005066	1.0
31	0	0	0.7457100153	95.28458405	94.5327301	99.04000092	1.0
32	0	0	0.7457100153	104.5516663	93.39030457	107.7725754	1.0
33	0	0	0.7457100153	116.003273	92.61612701	120.5217133	1.0
[Spine1]
30	0	0	2.140589952	7.647452354	0.2058820426	-1.701616287	1.0
31	0	0	2.140589952	7.007718563	-0.3178913593	-1.519833207	1.0
32	0	0	2.140589952	7.932697773	-1.189376831	-1.169569016	1.0
33	0	0	2.140589952	9.326353073	-1.35989511	-0.8800525665	1.0
[Neck]
30	0	0	2.32246995	64.79122925	76.74389648	86.77084351	1.0
31	0	0	2.32246995	66.78160858	76.90505981	87.59893799	1.0
32	0	0	2.32246995	71.52762604	77.31835938	91.21784973	1.0
33	0	0	2.32246995	72.64162445	77.6496048	92.05846405	1.0
[Head]
30	0	-0.1818799973	1.409579992	-246.5444336	82.79055786	-242.0462189	1.0
31	0	-0.1818799973	1.409579992	-246.4898529	82.93505096	-241.6422272	1.0
32	0	-0.1818799973	1.409579992	-249.7813263	83.53543854	-243.6744843	1.0
33	0	-0.1818799973	1.409579992	-249.1172791	83.86129761	-242.2397156	1.0
[LeftShoulder]
30	0.3668199778	0.02662999928	1.946700096	-17.62043381	1.628473759	-16.38147354	1.0
31	0.3668199778	0.02662999928	1.946700096	-17.15058899	1.834747076	-15.86822224	1.0
32	0.3668199778	0.02662999928	1.946700096	-17.49136543	2.333837271	-15.25883198	1.0
33	0.3668199778	0.02662999928	1.946700096	-16.89570999	2.972907543	-15.79186821	1.0
[LeftArm]
30	1.140689969	0	0	68.42823792	76.65965271	14.75342751	1.0
31	1.140689969	0	0	74.18094635	76.9519043	22.37343979	1.0
32	1.140689969	0	0	81.94337463	75.86180115	33.62073898	1.0
33	1.140689969	0	0	79.74498749	74.73815918	34.37865067	1.0
[LeftForeArm]
30	2.749800205	0	0	-5.24239397	-0.1205468774	-30.71658897	1.0
31	2.749800205	0	0	-5.910563946	-0.7253775001	-28.40795517	1.0
32	2.749800205	0	0	-8.492984772	-1.344052315	-24.30833244	1.0
33	2.749800205	0	0	-10.58869457	-1.722302318	-21.49036026	1.0
[LeftHand]
30	2.295179844	0	0	-5.719952583	5.62485075	-9.044352531	1.0
31	2.295179844	0	0	-6.462787628	5.190505505	-8.139268875	1.0
32	2.295179844	0	0	-8.940135956	2.29475975	-7.818036556	1.0
33	2.295179844	0	0	-11.18634319	4.658222198	-6.649370193	1.0
[RightShoulder]
30	-0.3601199985	0.02662999928	1.946700096	-2.756105661	7.042375565	-177.8949738	1.0
31	-0.3601199985	0.02662999928	1.946700096	-2.971114397	6.928508759	-177.5941315	1.0
32	-0.3601199985	0.02662999928	1.946700096	-3.995425701	6.77280283	-177.3309174	1.0
33	-0.3601199985	0.02662999928	1.946700096	-4.852312088	6.363036633	-177.0219879	1.0
[RightArm]
30	-1.140689969	0	0	65.84176636	-76.30151367	-211.1735535	1.0
31	-1.140689969	0	0	66.7522583	-76.62413025	-210.5588379	1.0
32	-1.140689969	0	0	65.20178223	-78.24632263	-204.8991089	1.0
33	-1.140689969	0	0	61.6138382	-79.54954529	-197.7094574	1.0
[RightForeArm]
30	-2.749800205	0	0	5.897672176	-7.591427326	-175.4472656	1.0
31	-2.749800205	0	0	6.078913689	-7.43832922	-174.6544189	1.0
32	-2.749800205	0	0	5.104831219	-6.283839226	-173.2498474	1.0
33	-2.749800205	0	0	5.207813263	-5.145468712	-172.4212189	1.0
[RightHand]
30	-2.295179844	0	0	6.175977707	-0.867390275	-176.6669006	1.0
31	-2.295179844	0	0	6.371880531	-1.32789278	-175.3185272	1.0
32	-2.295179844	0	0	5.517753124	0.8105534315	-174.2281799	1.0
33	-2.295179844	0	0	5.713947296	3.015523195	-173.7367706	1.0
[LeftUpLeg]
30	0.9094099998	0	0	-282.5456543	-99.85106659	285.3399658	1.0
31	0.9094099998	0	0	-290.12854	-101.6590042	288.6719666	1.0
32	0.9094099998	0	0	-309.4849548	-101.5960541	302.1385498	1.0
33	0.9094099998	0	0	-321.4408569	-101.0250244	308.5622864	1.0
[LeftLeg]
30	0	0	-4.498080254	72.02727509	-80.56005859	-17.85338974	1.0
31	0	0	-4.498080254	69.67825317	-84.87730408	-7.394310951	1.0
32	0	0	-4.498080254	82.68431854	-67.65118408	-7.943175316	1.0
33	0	0	-4.498080254	83.09231567	-57.3586731	-2.127813816	1.0
[LeftFoot]
30	0	0	-3.729400158	-36.61459351	-5.461742878	94.64512634	1.0
31	0	0	-3.729400158	-30.63348198	-7.783806801	92.21208191	1.0
32	0	0	-3.729400158	-32.76602936	2.27197814	108.8984146	1.0
33	0	0	-3.729400158	-35.95770645	8.281235695	119.1982803	1.0
[LeftToeBase]
30	0	-1.364109993	-0.5911099911	0	-1.999999995e-006	0	1.0
31	0	-1.364109993	-0.5911099911	0	-1.999999995e-006	0	1.0
32	0	-1.364109993	-0.5911099911	0	-1.999999995e-006	0	1.0
33	0	-1.364109993	-0.5911099911	0	-1.999999995e-006	0	1.0
[RightUpLeg]
30	-0.9094099998	0	0	-41.02721405	-98.88583374	23.12732315	1.0
31	-0.9094099998	0	0	-33.88516998	-99.93638611	14.99984741	1.0
32	-0.9094099998	0	0	-31.59304619	-101.7323303	13.57610416	1.0
33	-0.9094099998	0	0	-34.44515991	-102.9046249	15.89561462	1.0
[RightLeg]
30	0	0	-4.498080254	-5.52398777	-85.95053864	32.28462219	1.0
31	0	0	-4.498080254	13.07457924	-84.46444702	17.72711945	1.0
32	0	0	-4.498080254	23.70842361	-82.67417908	13.45389175	1.0
33	0	0	-4.498080254	15.04380417	-82.01769257	25.65639114	1.0
[RightFoot]
30	0	0	-3.729400158	-47.70689011	-24.45859528	88.14186096	1.0
31	0	0	-3.729400158	-50.19429016	-24.71655273	89.06555176	1.0
32	0	0	-3.729400158	-55.17512512	-24.3360939	89.36782074	1.0
33	0	0	-3.729400158	-57.41176987	-24.97680092	88.3605423	1.0
[RightToeBase]
30	0	-1.364109993	-0.5911099911	0	0	3.99999999e-006	1.0
31	0	-1.364109993	-0.5911099911	0	0	3.99999999e-006	1.0
32	0	-1.364109993	-0.5911099911	0	0	3.99999999e-006	1.0
33	0	-1.364109993	-0.5911099911	0	0	3.99999999e-006	1.0
[EndOfFile]
